<svg width="343" height="395" viewBox="0 0 343 395" fill="none" xmlns="http://www.w3.org/2000/svg">
<mask id="path-1-inside-1_968_1130" fill="white">
<path fill-rule="evenodd" clip-rule="evenodd" d="M283.769 328.34L343 295.098V98.7128L172.015 -6.2719e-05L124.206 28.6434V39.4811V39.4818V164.172H218.799V94.482L283.769 132.258V328.34ZM59.231 65.8181L0 99.0602V295.445L170.985 394.158L218.8 365.515V354.676L218.799 354.676V229.985H124.206V299.678L59.231 261.9V65.8181Z"/>
</mask>
<path d="M343 295.098L343.979 296.842L345 296.269V295.098H343ZM283.769 328.34H281.769V331.756L284.748 330.084L283.769 328.34ZM343 98.7129H345V97.5582L344 96.9808L343 98.7129ZM172.015 0L173.015 -1.73207L171.996 -2.32022L170.987 -1.71565L172.015 0ZM124.206 28.6435L123.178 26.9278L122.206 27.5103V28.6435H124.206ZM124.206 164.172H122.206V166.172H124.206V164.172ZM218.799 164.172V166.172H220.799V164.172H218.799ZM218.799 94.4821L219.805 92.7531L216.799 91.0057V94.4821H218.799ZM283.769 132.258H285.769V131.107L284.775 130.529L283.769 132.258ZM0 99.0602L-0.978836 97.3161L-2 97.8892V99.0602H0ZM59.231 65.8182H61.231V62.4023L58.2522 64.0741L59.231 65.8182ZM0 295.445H-2V296.6L-0.999959 297.177L0 295.445ZM170.985 394.158L169.985 395.89L171.004 396.478L172.013 395.874L170.985 394.158ZM218.8 365.515L219.827 367.23L220.8 366.648V365.515H218.8ZM218.8 354.676H220.8V354.371L220.709 354.08L218.8 354.676ZM218.799 354.676H216.799V354.981L216.891 355.272L218.799 354.676ZM218.799 229.985H220.799V227.985H218.799V229.985ZM124.206 229.985V227.985H122.206V229.985H124.206ZM124.206 299.678L123.201 301.407L126.206 303.154V299.678H124.206ZM59.231 261.9H57.231V263.051L58.2258 263.629L59.231 261.9ZM342.021 293.354L282.79 326.596L284.748 330.084L343.979 296.842L342.021 293.354ZM341 98.7129V295.098H345V98.7129H341ZM171.015 1.73207L342 100.445L344 96.9808L173.015 -1.73207L171.015 1.73207ZM125.234 30.3591L173.043 1.71565L170.987 -1.71565L123.178 26.9278L125.234 30.3591ZM126.206 39.4812V28.6435H122.206V39.4812H126.206ZM126.206 39.4819V39.4812H122.206V39.4819H126.206ZM126.206 164.172V39.4819H122.206V164.172H126.206ZM218.799 162.172H124.206V166.172H218.799V162.172ZM216.799 94.4821V164.172H220.799V94.4821H216.799ZM284.775 130.529L219.805 92.7531L217.794 96.211L282.764 133.987L284.775 130.529ZM285.769 328.34V132.258H281.769V328.34H285.769ZM0.978836 100.804L60.2099 67.5623L58.2522 64.0741L-0.978836 97.3161L0.978836 100.804ZM2 295.445V99.0602H-2V295.445H2ZM171.985 392.426L0.999959 293.713L-0.999959 297.177L169.985 395.89L171.985 392.426ZM217.772 363.799L169.957 392.442L172.013 395.874L219.827 367.23L217.772 363.799ZM216.8 354.676V365.515H220.8V354.676H216.8ZM216.891 355.272L216.891 355.273L220.709 354.08L220.708 354.079L216.891 355.272ZM216.799 229.985V354.676H220.799V229.985H216.799ZM124.206 231.985H218.799V227.985H124.206V231.985ZM126.206 299.678V229.985H122.206V299.678H126.206ZM58.2258 263.629L123.201 301.407L125.211 297.949L60.2363 260.171L58.2258 263.629ZM57.231 65.8182V261.9H61.231V65.8182H57.231Z" fill="#8F64CF" mask="url(#path-1-inside-1_968_1130)"/>
</svg>
