<svg width="18" height="18" viewBox="0 0 18 18" fill="none" xmlns="http://www.w3.org/2000/svg">
<path d="M11.9772 12.7675L13.5172 11.2275C13.7247 11.0227 13.9871 10.8825 14.2727 10.8239C14.5582 10.7653 14.8547 10.7909 15.126 10.8975L17.0029 11.6469C17.277 11.7582 17.5121 11.9482 17.6785 12.1928C17.8449 12.4375 17.9352 12.726 17.9379 13.0219V16.4594C17.9363 16.6607 17.894 16.8596 17.8135 17.0441C17.733 17.2286 17.616 17.3949 17.4696 17.533C17.3231 17.6711 17.1502 17.7781 16.9613 17.8476C16.7724 17.9172 16.5714 17.9477 16.3704 17.9375C3.21849 17.1194 0.564742 5.9819 0.0628667 1.7194C0.0395693 1.51008 0.0608555 1.2982 0.125325 1.0977C0.189794 0.897202 0.295985 0.712623 0.436913 0.556109C0.57784 0.399595 0.75031 0.274694 0.942975 0.189622C1.13564 0.10455 1.34413 0.0612356 1.55474 0.0625281H4.87537C5.17169 0.0634052 5.46097 0.152912 5.706 0.319536C5.95104 0.48616 6.14062 0.72228 6.25037 0.997528L6.99974 2.8744C7.10992 3.14464 7.13802 3.44134 7.08056 3.72746C7.02309 4.01358 6.88259 4.27642 6.67662 4.48315L5.13662 6.02315C5.13662 6.02315 6.02349 12.025 11.9772 12.7675Z" fill="#8681BC"/>
</svg>
